<?xml version="1.0" encoding="utf-8"?>
<!-- Generator: Adobe Illustrator 16.0.0, SVG Export Plug-In . SVG Version: 6.00 Build 0)  -->
<!DOCTYPE svg PUBLIC "-//W3C//DTD SVG 1.1//EN" "http://www.w3.org/Graphics/SVG/1.1/DTD/svg11.dtd">
<svg version="1.1" id="Capa_1" xmlns="http://www.w3.org/2000/svg" xmlns:xlink="http://www.w3.org/1999/xlink" x="0px" y="0px"
	 width="150px" height="150px" viewBox="0 0 256 361" style="enable-background:new 0 0 256 361;" xml:space="preserve">
<style type="text/css">
<![CDATA[
	.st0{fill:#EBEBEB;}
	.st1{fill:#264DE4;}
	.st2{fill:#2965F1;}
	.st3{fill:#FFFFFF;}
]]>
</style>
<path class="st1" d="M127.844,323.088L23.662,294.166L0.445,33.766h255.109l-23.241,260.359L127.844,323.088L127.844,323.088z"/>
<path class="st2" d="M212.416,277.547l19.861-222.49H128V300.95L212.416,277.547L212.416,277.547z"/>
<path class="st0" d="M53.668,151.637l2.862,31.936H128v-31.936H53.668L53.668,151.637z"/>
<path class="st0" d="M47.917,86.995l2.903,31.938H128V86.995H47.917L47.917,86.995z"/>
<path class="st0" d="M128,234.58l-0.14,0.037l-35.568-9.604l-2.274-25.472h-32.06l4.474,50.146l65.421,18.161l0.147-0.04V234.58
	L128,234.58z"/>
<path class="st3" d="M202.127,151.637l5.766-64.642H127.89v31.938h45.003l-2.906,32.705H127.89v31.936h39.327l-3.707,41.42
	l-35.62,9.615v33.227l65.473-18.146l0.48-5.396l7.505-84.08L202.127,151.637L202.127,151.637z"/>
</svg>
