<?xml version="1.0" encoding="utf-8"?>
<!-- Generator: Adobe Illustrator 16.0.0, SVG Export Plug-In . SVG Version: 6.00 Build 0)  -->
<!DOCTYPE svg PUBLIC "-//W3C//DTD SVG 1.1//EN" "http://www.w3.org/Graphics/SVG/1.1/DTD/svg11.dtd">
<svg version="1.1" id="Capa_1" xmlns="http://www.w3.org/2000/svg" xmlns:xlink="http://www.w3.org/1999/xlink" x="0px" y="0px"
	 width="150px" height="150px" viewBox="0 0 256 361" style="enable-background:new 0 0 256 361;" xml:space="preserve">
<style type="text/css">
<![CDATA[
	.st0{fill:#E44D26;}
	.st1{fill:#EBEBEB;}
	.st2{fill:#F16529;}
	.st3{fill:#FFFFFF;}
]]>
</style>
<path class="st0" d="M255.555,43.766l-23.241,260.359l-104.47,28.963L23.662,304.166L0.445,43.766H255.555L255.555,43.766z"/>
<path class="st2" d="M128,304.95l84.416-23.403l19.861-222.49H128V304.95L128,304.95z"/>
<path class="st1" d="M82.82,111.86H128V79.922H47.917l0.765,8.568l7.849,88.009H128v-31.936H85.739L82.82,111.86L82.82,111.86z"/>
<path class="st1" d="M90.018,192.542h-32.06l4.474,50.146l65.421,18.161l0.147-0.04V227.58l-0.14,0.037l-35.568-9.604
	L90.018,192.542L90.018,192.542z"/>
<path class="st3" d="M127.89,176.572h39.327l-3.707,41.42l-35.62,9.615v33.227l65.473-18.146l0.48-5.396l7.505-84.08l0.779-8.575
	H127.89V176.572L127.89,176.572z"/>
<path class="st3" d="M127.89,111.854v0.078h77.144l0.641-7.179l1.455-16.19l0.764-8.568H127.89V111.854L127.89,111.854z"/>
</svg>
