<?xml version="1.0" encoding="utf-8"?>
<!-- Generator: Adobe Illustrator 16.0.0, SVG Export Plug-In . SVG Version: 6.00 Build 0)  -->
<!DOCTYPE svg PUBLIC "-//W3C//DTD SVG 1.1//EN" "http://www.w3.org/Graphics/SVG/1.1/DTD/svg11.dtd">
<svg version="1.1" id="Capa_1" xmlns="http://www.w3.org/2000/svg" xmlns:xlink="http://www.w3.org/1999/xlink" x="0px" y="0px"
	 width="150px" height="150px" viewBox="0 0 150 150" style="enable-background:new 0 0 150 150;" xml:space="preserve">
<style type="text/css">
<![CDATA[
	.st0{fill:#E23237;}
	.st1{fill:#B52E31;}
	.st2{fill:#FFFFFF;}
]]>
</style>
<g>
	<g>
		<path class="st0" d="M1.758,27.718l71.972-24.08L147.598,27.3l-11.939,89.304l-61.929,32.141l-60.925-31.723L1.758,27.718
			L1.758,27.718z"/>
		<path class="st1" d="M147.598,27.3L73.729,3.639v145.105l61.929-32.141L147.598,27.3L147.598,27.3z"/>
		<path class="st2" d="M73.841,20.599L73.841,20.599l-44.857,93.596l16.737-0.314l9.039-21.147h19.081h20.977l9.819,21.356
			l15.957,0.314L73.841,20.599L73.841,20.599z M73.953,50.646l15.175,29.733H74.622h-0.781H60.674L73.953,50.646L73.953,50.646z"/>
	</g>
</g>
</svg>
