<?xml version="1.0" encoding="utf-8"?>
<!-- Generator: Adobe Illustrator 16.0.0, SVG Export Plug-In . SVG Version: 6.00 Build 0)  -->
<!DOCTYPE svg PUBLIC "-//W3C//DTD SVG 1.1//EN" "http://www.w3.org/Graphics/SVG/1.1/DTD/svg11.dtd">
<svg version="1.1" id="Capa_1" xmlns="http://www.w3.org/2000/svg" xmlns:xlink="http://www.w3.org/1999/xlink" x="0px" y="0px"
	 width="150px" height="150px" viewBox="0 0 150 150" style="enable-background:new 0 0 150 150;" xml:space="preserve">
<style type="text/css">
<![CDATA[
	.st0{fill:#21609B;}
]]>
</style>
<g>
	<g transform="translate(0.000000, 8.827586)">
		<path class="st0" d="M140.582,97.937l-0.614,1.625c-10.484,20.784-29.059,33.534-55.555,34.095
			c-12.387,0.265-24.188-2.975-31.898-6.491c-16.637-7.608-30.629-21.724-38.272-36.807C3.279,68.742,1.301,38.669,24.097,16.211
			c0.353,0-2.764,4.868-2.413,4.868l-0.627,2.081c-16.428,52.358,34.181,97.229,83.377,92.099
			C116.257,114.021,131.335,107.43,140.582,97.937"/>
		<path class="st0" d="M110.811,76.285c12.378,0.089,25.306-5.801,32.961-14.069c-6.696,17.309-26.09,28.434-52.098,24.892
			c-21.772-2.961-42.518-25.271-44.655-47.626c-1.56-16.269,4.01-25.981,13.187-37.759c-3.191,6.162-4.382,10.912-4.678,13.942
			C52.041,50.858,83.136,76.103,110.811,76.285"/>
		<path class="st0" d="M142.527,32.577c-1.922,4.49-13,12.978-17.892,14.038c-19.371,4.202-31.779-5.151-38.278-15.793
			c-0.968-1.592-2.752-5.932-3.071-7.037c-2.521-8.726-1.362-21.919,6.155-28.751c-2.265,6.494-2.594,14.04-1.404,18.943
			c0.722,2.968,2.925,8.144,5.127,11.399c4.007,5.934,6.547,7.373,11.695,10.522c2.316,1.417,4.804,2.555,5.88,2.87
			C115.618,40.23,125.92,44.083,142.527,32.577"/>
	</g>
</g>
</svg>
